<svg t="1662035687752" class="icon" viewBox="0 0 1024 1024" version="1.1" xmlns="http://www.w3.org/2000/svg" p-id="937" width="200" height="200"><path d="M117.504 1017.557333a38.058667 38.058667 0 0 0 13.098667-2.133333l381.098666-146.048-425.6-163.328v277.461333a32.768 32.768 0 0 0 31.402667 34.048zM937.344 99.285333A98.304 98.304 0 0 0 838.912 0.853333c54.442667 0.554667 98.432 44.501333 98.432 98.432v606.250667V99.285333z" fill="#BBE2FF" p-id="938"></path><path d="M892.842667 1014.912c4.181333 1.578667 8.362667 2.133333 13.098666 2.133333a32.426667 32.426667 0 0 0 31.402667-34.048v-277.461333l-425.642667 163.328 381.141334 146.048zM184.533333 1.408A98.304 98.304 0 0 0 86.101333 99.797333v606.250667-606.72A98.176 98.176 0 0 1 184.533333 1.365333z" fill="#65AFE7" p-id="939"></path><path d="M838.912 172.074667H183.978667A98.304 98.304 0 0 0 85.589333 270.464v435.584l425.6 163.328 425.642667-163.328V269.994667a97.408 97.408 0 0 0-97.92-97.92z" fill="#3396FB" p-id="940"></path><path d="M426.666667 512m33.493333 0l231.68 0q33.493333 0 33.493333 33.493333l0 0q0 33.493333-33.493333 33.493334l-231.68 0q-33.493333 0-33.493333-33.493334l0 0q0-33.493333 33.493333-33.493333Z" fill="#FFB541" p-id="941"></path><path d="M298.666667 341.333333m33.493333 0l359.68 0q33.493333 0 33.493333 33.493334l0 0q0 33.493333-33.493333 33.493333l-359.68 0q-33.493333 0-33.493333-33.493333l0 0q0-33.493333 33.493333-33.493334Z" fill="#FFB541" p-id="942"></path></svg>